<svg width="121" height="32" viewBox="0 0 121 32" fill="none" xmlns="http://www.w3.org/2000/svg">
<path d="M37.673 13.995V11.98H41.176C41.8167 11.98 42.3747 11.8767 42.85 11.67C43.3253 11.4633 43.687 11.1637 43.935 10.771C44.2037 10.3783 44.338 9.91333 44.338 9.376C44.338 8.54933 44.0487 7.919 43.47 7.485C42.912 7.051 42.1473 6.834 41.176 6.834H38.789V21.466H41.641C42.385 21.466 43.0567 21.3627 43.656 21.156C44.2553 20.9287 44.7203 20.5773 45.051 20.102C45.4023 19.6267 45.578 19.017 45.578 18.273C45.578 17.7357 45.4747 17.281 45.268 16.909C45.082 16.5163 44.803 16.196 44.431 15.948C44.0797 15.6793 43.6663 15.4933 43.191 15.39C42.7157 15.266 42.199 15.204 41.641 15.204H37.673V12.786H42.044C43.098 12.786 44.1003 12.8997 45.051 13.127C46.0223 13.3543 46.8903 13.716 47.655 14.212C48.4197 14.6873 49.019 15.3073 49.453 16.072C49.9077 16.8367 50.135 17.7563 50.135 18.831C50.135 20.257 49.794 21.4247 49.112 22.334C48.4507 23.2433 47.5103 23.915 46.291 24.349C45.0717 24.783 43.656 25 42.044 25H34.356V3.3H41.579C43.0257 3.3 44.2967 3.50667 45.392 3.92C46.4873 4.31267 47.345 4.912 47.965 5.718C48.585 6.524 48.895 7.547 48.895 8.787C48.895 9.88233 48.585 10.8227 47.965 11.608C47.345 12.3933 46.4873 12.9927 45.392 13.406C44.2967 13.7987 43.0257 13.995 41.579 13.995H37.673ZM52.5796 17.87C52.5796 16.382 52.9206 15.08 53.6026 13.964C54.3053 12.848 55.2456 11.98 56.4236 11.36C57.6223 10.74 58.976 10.43 60.4846 10.43C61.9933 10.43 63.3366 10.74 64.5146 11.36C65.7133 11.98 66.6536 12.848 67.3356 13.964C68.0383 15.08 68.3896 16.382 68.3896 17.87C68.3896 19.3373 68.0383 20.6393 67.3356 21.776C66.6536 22.892 65.7133 23.76 64.5146 24.38C63.3366 25 61.9933 25.31 60.4846 25.31C58.976 25.31 57.6223 25 56.4236 24.38C55.2456 23.76 54.3053 22.892 53.6026 21.776C52.9206 20.6393 52.5796 19.3373 52.5796 17.87ZM56.6716 17.87C56.6716 18.676 56.837 19.389 57.1676 20.009C57.519 20.6083 57.984 21.0837 58.5626 21.435C59.1413 21.7657 59.782 21.931 60.4846 21.931C61.1873 21.931 61.828 21.7657 62.4066 21.435C62.9853 21.0837 63.44 20.6083 63.7706 20.009C64.122 19.389 64.2976 18.676 64.2976 17.87C64.2976 17.064 64.122 16.351 63.7706 15.731C63.44 15.111 62.9853 14.6357 62.4066 14.305C61.828 13.9743 61.1873 13.809 60.4846 13.809C59.782 13.809 59.1413 13.9743 58.5626 14.305C57.984 14.6357 57.519 15.111 57.1676 15.731C56.837 16.351 56.6716 17.064 56.6716 17.87ZM71.309 0.819999H75.184V25H71.309V0.819999ZM80.423 10.74H85.228L79.09 16.63L85.848 25H81.074L74.285 16.63L80.423 10.74ZM87.7755 5.222C87.7755 4.56067 88.0132 4.02333 88.4885 3.61C88.9639 3.176 89.5322 2.959 90.1935 2.959C90.8549 2.959 91.4129 3.176 91.8675 3.61C92.3429 4.02333 92.5805 4.56067 92.5805 5.222C92.5805 5.86267 92.3429 6.4 91.8675 6.834C91.4129 7.268 90.8549 7.485 90.1935 7.485C89.5322 7.485 88.9639 7.268 88.4885 6.834C88.0132 6.4 87.7755 5.86267 87.7755 5.222ZM88.2095 10.74H92.1155V25H88.2095V10.74ZM95.1686 10.74H104.097V14.119H95.1686V10.74ZM103.663 4.85C103.456 4.54 103.218 4.33333 102.95 4.23C102.702 4.106 102.454 4.044 102.206 4.044C101.896 4.044 101.627 4.12667 101.4 4.292C101.193 4.43667 101.028 4.68467 100.904 5.036C100.78 5.38733 100.718 5.83167 100.718 6.369V25H96.8426V5.47C96.8426 4.37467 97.0286 3.455 97.4006 2.711C97.7726 1.967 98.3306 1.39867 99.0746 1.006C99.8186 0.592666 100.728 0.385999 101.803 0.385999C102.443 0.385999 102.991 0.468666 103.446 0.634C103.9 0.778666 104.283 0.964666 104.593 1.192C104.923 1.41933 105.182 1.63633 105.368 1.843L103.663 4.85ZM120.067 10.74L110.767 31.82H106.644L110.24 23.574L104.319 10.74H108.783L113.371 22.086L111.387 22.024L115.882 10.74H120.067Z" fill="#1B3764"/>
<path d="M5.01607 0C2.25452 0 0 2.25452 0 5.01607V23.0739C0 25.8355 2.25452 28.09 5.01607 28.09H23.0739C23.628 28.0899 24.0771 27.6408 24.0771 27.0868V5.01607C24.0771 4.46204 23.628 4.01292 23.0739 4.01286H20.0643V1.00321C20.0642 0.449179 19.6151 6.01929e-05 19.0611 0H5.01607ZM20.0643 6.01929H22.0707V26.0836H5.01607C3.33137 26.0836 2.00643 24.7586 2.00643 23.0739C2.00643 21.3892 3.33137 20.0643 5.01607 20.0643H19.0611C19.6151 20.0642 20.0642 19.6151 20.0643 19.0611V6.01929Z" fill="#0160FF"/>
<path d="M19.0344 22.0706H5.01751C3.66083 22.0514 3.66083 24.0962 5.01751 24.077H19.0344C19.6 24.085 20.0602 23.6237 20.0514 23.0643C20.0424 22.5048 19.5877 22.063 19.0344 22.0706Z" fill="#0160FF"/>
</svg>
